<?xml version="1.0" standalone="no"?>
<!DOCTYPE svg PUBLIC "-//W3C//DTD SVG 20010904//EN"
 "http://www.w3.org/TR/2001/REC-SVG-20010904/DTD/svg10.dtd">
<svg version="1.0" xmlns="http://www.w3.org/2000/svg"
 width="260.000000pt" height="260.000000pt" viewBox="0 0 260.000000 260.000000"
 preserveAspectRatio="xMidYMid meet">
<metadata>
Created by potrace 1.11, written by Peter Selinger 2001-2013
</metadata>
<g transform="translate(0.000000,260.000000) scale(0.100000,-0.100000)"
fill="#000000" stroke="none">
<path d="M490 2195 l0 -115 50 0 50 0 0 -400 0 -400 -50 0 -50 0 0 -115 0
-115 288 1 c240 0 298 3 354 18 67 17 68 17 74 -3 10 -30 91 -112 138 -139 22
-13 106 -46 186 -72 185 -61 216 -77 237 -121 15 -31 16 -39 3 -77 -10 -27
-27 -50 -50 -65 -30 -21 -44 -23 -107 -20 -80 4 -111 20 -150 78 -17 24 -23
47 -23 86 l0 54 -155 0 -155 0 0 -125 0 -125 45 0 c25 0 45 -4 45 -8 0 -24 69
-107 117 -142 87 -62 167 -85 298 -84 162 2 269 45 358 144 145 161 122 445
-45 557 -29 19 -122 56 -235 93 -215 72 -243 89 -243 155 0 49 22 82 66 101
74 31 175 7 227 -55 22 -27 27 -42 27 -87 l0 -54 155 0 155 0 0 125 0 125 -38
0 c-34 0 -42 5 -70 44 -64 91 -176 151 -318 169 l-81 11 -6 85 c-13 226 -145
428 -341 525 -117 58 -174 66 -483 66 l-273 0 0 -115z m540 -126 c147 -34 260
-199 260 -380 0 -93 -16 -161 -50 -207 -16 -22 -37 -57 -48 -79 -39 -75 -138
-123 -258 -123 l-74 0 0 400 0 400 63 0 c34 0 82 -5 107 -11z"/>
</g>
</svg>
